<svg width="30" height="31" viewBox="0 0 30 31" fill="none" xmlns="http://www.w3.org/2000/svg">
<g clip-path="url(#clip0)">
<path d="M14.7862 14.9511C16.7715 14.9511 18.4904 14.2391 19.8953 12.8342C21.2997 11.4295 22.012 9.71086 22.012 7.72531C22.012 5.74045 21.3 4.02155 19.8951 2.61644C18.4902 1.21202 16.7713 0.499969 14.7862 0.499969C12.8007 0.499969 11.082 1.21202 9.67735 2.61667C8.27271 4.02132 7.56042 5.74022 7.56042 7.72531C7.56042 9.71086 8.27271 11.4298 9.67735 12.8344C11.0825 14.2388 12.8014 14.9511 14.7862 14.9511V14.9511ZM10.9206 3.85973C11.9984 2.78192 13.2628 2.25801 14.7862 2.25801C16.3094 2.25801 17.574 2.78192 18.652 3.85973C19.7298 4.93776 20.254 6.20233 20.254 7.72531C20.254 9.24875 19.7298 10.5131 18.652 11.5911C17.574 12.6692 16.3094 13.1931 14.7862 13.1931C13.2632 13.1931 11.9989 12.6689 10.9206 11.5911C9.84261 10.5133 9.31847 9.24875 9.31847 7.72531C9.31847 6.20233 9.84261 4.93776 10.9206 3.85973Z" fill="#006DF0"/>
<path d="M27.4294 23.5685C27.3889 22.9839 27.307 22.3463 27.1864 21.6729C27.0646 20.9945 26.9078 20.3532 26.7201 19.767C26.526 19.1611 26.2626 18.5629 25.9364 17.9895C25.5984 17.3944 25.201 16.8762 24.7552 16.4498C24.2889 16.0037 23.7181 15.6451 23.058 15.3835C22.4002 15.1232 21.6712 14.9914 20.8914 14.9914C20.5852 14.9914 20.289 15.117 19.717 15.4894C19.365 15.719 18.9532 15.9845 18.4937 16.2782C18.1007 16.5285 17.5683 16.7632 16.9107 16.9756C16.2691 17.1832 15.6178 17.2884 14.9746 17.2884C14.3319 17.2884 13.6805 17.1832 13.0385 16.9756C12.3816 16.7634 11.849 16.5288 11.4567 16.2784C11.0014 15.9875 10.5894 15.722 10.2322 15.4892C9.66064 15.1168 9.36447 14.9911 9.05823 14.9911C8.2782 14.9911 7.54944 15.1232 6.89186 15.3837C6.23222 15.6448 5.66116 16.0035 5.19447 16.45C4.74861 16.8767 4.35127 17.3946 4.01344 17.9895C3.68774 18.5629 3.42407 19.1609 3.22998 19.7672C3.04253 20.3534 2.88574 20.9945 2.76398 21.6729C2.64313 22.3454 2.56142 22.9832 2.5209 23.5692C2.48108 24.1421 2.46094 24.7383 2.46094 25.3407C2.46094 26.9067 2.95876 28.1745 3.94043 29.1095C4.90997 30.0321 6.19263 30.5 7.75291 30.5H22.1981C23.7579 30.5 25.0406 30.0321 26.0104 29.1095C26.9923 28.1752 27.4901 26.907 27.4901 25.3405C27.4899 24.736 27.4695 24.1398 27.4294 23.5685V23.5685ZM24.7982 27.8358C24.1576 28.4455 23.307 28.7419 22.1979 28.7419H7.75291C6.64352 28.7419 5.793 28.4455 5.15259 27.836C4.52431 27.2379 4.21898 26.4215 4.21898 25.3407C4.21898 24.7786 4.23752 24.2236 4.2746 23.6907C4.31076 23.168 4.38469 22.5937 4.49432 21.9835C4.60258 21.3808 4.74037 20.8153 4.90425 20.3033C5.06149 19.8123 5.27596 19.3262 5.54192 18.8579C5.79575 18.4116 6.0878 18.0286 6.41006 17.7201C6.7115 17.4315 7.09145 17.1953 7.53914 17.0181C7.95319 16.8542 8.4185 16.7645 8.92365 16.751C8.98521 16.7838 9.09485 16.8462 9.27246 16.9621C9.63387 17.1976 10.0504 17.4663 10.5109 17.7604C11.03 18.0914 11.6988 18.3903 12.4979 18.6482C13.3147 18.9124 14.1479 19.0465 14.9748 19.0465C15.8018 19.0465 16.6351 18.9124 17.4516 18.6485C18.2513 18.39 18.9198 18.0914 19.4396 17.7599C19.9109 17.4587 20.3158 17.1978 20.6772 16.9621C20.8548 16.8465 20.9644 16.7838 21.026 16.751C21.5314 16.7645 21.9967 16.8542 22.411 17.0181C22.8584 17.1953 23.2384 17.4317 23.5398 17.7201C23.8621 18.0284 24.1541 18.4113 24.408 18.8581C24.6741 19.3262 24.8888 19.8125 25.0459 20.303C25.21 20.8157 25.348 21.3811 25.456 21.9833C25.5654 22.5946 25.6396 23.1691 25.6757 23.6909V23.6914C25.713 24.2222 25.7318 24.777 25.732 25.3407C25.7318 26.4217 25.4265 27.2379 24.7982 27.8358V27.8358Z" fill="#006DF0"/>
</g>
<defs>
<clipPath id="clip0">
<rect width="30" height="30.0001" fill="white" transform="translate(0 0.499969)"/>
</clipPath>
</defs>
</svg>
