<svg width="24" height="24" viewBox="0 0 24 24" fill="none" xmlns="http://www.w3.org/2000/svg">
<rect width="24" height="24" fill="white"/>
<circle cx="12" cy="12" r="11.5" fill="#ECEAB8" stroke="#D6CF3B"/>
<path d="M8.924 7.624H12.992C13.688 7.624 14.228 7.82 14.612 8.212C15.004 8.604 15.2 9.124 15.2 9.772C15.2 10.092 15.156 10.364 15.068 10.588C14.988 10.812 14.876 10.996 14.732 11.14C14.596 11.284 14.432 11.392 14.24 11.464C14.056 11.528 13.856 11.564 13.64 11.572V11.644C13.84 11.644 14.048 11.68 14.264 11.752C14.488 11.824 14.692 11.94 14.876 12.1C15.06 12.252 15.212 12.452 15.332 12.7C15.46 12.948 15.524 13.252 15.524 13.612C15.524 13.94 15.468 14.252 15.356 14.548C15.252 14.836 15.104 15.088 14.912 15.304C14.72 15.52 14.492 15.692 14.228 15.82C13.964 15.94 13.676 16 13.364 16H8.924V7.624ZM10.748 14.464H12.848C13.088 14.464 13.276 14.4 13.412 14.272C13.556 14.136 13.628 13.948 13.628 13.708V13.3C13.628 13.06 13.556 12.876 13.412 12.748C13.276 12.612 13.088 12.544 12.848 12.544H10.748V14.464ZM10.748 11.056H12.56C12.8 11.056 12.988 10.988 13.124 10.852C13.26 10.716 13.328 10.528 13.328 10.288V9.928C13.328 9.688 13.26 9.5 13.124 9.364C12.988 9.228 12.8 9.16 12.56 9.16H10.748V11.056Z" fill="black"/>
</svg>
