<svg width="83" height="115" viewBox="0 0 83 115" fill="none" xmlns="http://www.w3.org/2000/svg">
<rect x="1" y="1" width="81" height="113" stroke="#B9B9B9" stroke-width="2"/>
<mask id="path-2-inside-1_261_262" fill="white">
<path fill-rule="evenodd" clip-rule="evenodd" d="M44.1696 16.1404H39.8302C38.5047 16.1404 37.4302 16.6173 37.4302 17.2056V18.1795C37.1719 18.3749 37.0082 18.6657 37.0082 18.9905V21.8205C37.0082 22.1454 37.1719 22.4362 37.4302 22.6316V40.5422L37.4071 40.5477C35.951 40.8952 34.628 41.4046 33.5137 42.0468C32.3993 42.6889 31.5155 43.4513 30.9126 44.2903C30.3097 45.1292 29.9996 46.0284 30 46.9364C30 46.9936 30.0012 47.0508 30.0036 47.1079H30V95.9754V97.1588V100.513C30 101.69 32.149 102.644 34.8 102.644H49.2C51.851 102.644 54 101.69 54 100.513V97.1588V95.9754V47.1079H53.9964C53.9988 47.0508 54 46.9936 54 46.9364C54.0004 46.0284 53.6903 45.1292 53.0874 44.2903C52.4845 43.4513 51.6007 42.6889 50.4863 42.0468C49.372 41.4046 48.049 40.8952 46.5929 40.5477L46.5696 40.5422V22.6315C46.8278 22.4361 46.9915 22.1453 46.9915 21.8205V18.9905C46.9915 18.6658 46.8278 18.375 46.5696 18.1796V17.2056C46.5696 16.6173 45.4951 16.1404 44.1696 16.1404Z"/>
</mask>
<path d="M37.4302 18.1795L38.637 19.7744L39.4302 19.1742V18.1795H37.4302ZM37.4302 22.6316H39.4302V21.6369L38.637 21.0367L37.4302 22.6316ZM37.4302 40.5422L37.8932 42.4879L39.4302 42.1221V40.5422H37.4302ZM37.4071 40.5477L36.9441 38.602L36.9428 38.6024L37.4071 40.5477ZM33.5137 42.0468L32.5151 40.3139L32.5151 40.3139L33.5137 42.0468ZM30.9126 44.2903L29.2884 43.1231L29.2884 43.1231L30.9126 44.2903ZM30 46.9364L32 46.9373L32 46.9356L30 46.9364ZM30.0036 47.1079V49.1079H32.0907L32.0018 47.0227L30.0036 47.1079ZM30 47.1079V45.1079H28V47.1079H30ZM54 47.1079H56V45.1079H54V47.1079ZM53.9964 47.1079L51.9982 47.0227L51.9093 49.1079H53.9964V47.1079ZM54 46.9364L52 46.9356L52 46.9373L54 46.9364ZM50.4863 42.0468L49.4878 43.7797L49.4878 43.7797L50.4863 42.0468ZM46.5929 40.5477L47.0572 38.6024L47.0559 38.602L46.5929 40.5477ZM46.5696 40.5422H44.5696V42.1221L46.1066 42.4878L46.5696 40.5422ZM46.5696 22.6315L45.3626 21.0368L44.5696 21.637V22.6315H46.5696ZM46.5696 18.1796H44.5696V19.1741L45.3626 19.7743L46.5696 18.1796ZM39.8302 18.1404H44.1696V14.1404H39.8302V18.1404ZM39.4302 17.2056C39.4302 17.7102 39.1914 18.0397 39.0667 18.1707C38.9517 18.2914 38.8799 18.309 38.9445 18.2804C39.0685 18.2253 39.38 18.1404 39.8302 18.1404V14.1404C38.9549 14.1404 38.0664 14.2938 37.3217 14.6243C36.952 14.7885 36.5288 15.0357 36.1709 15.4112C35.8032 15.7971 35.4302 16.4069 35.4302 17.2056H39.4302ZM39.4302 18.1795V17.2056H35.4302V18.1795H39.4302ZM36.2234 16.5846C35.5316 17.1081 35.0082 17.9608 35.0082 18.9905H39.0082C39.0082 19.3707 38.8123 19.6417 38.637 19.7744L36.2234 16.5846ZM35.0082 18.9905V21.8205H39.0082V18.9905H35.0082ZM35.0082 21.8205C35.0082 22.8503 35.5316 23.703 36.2234 24.2265L38.637 21.0367C38.8123 21.1694 39.0082 21.4404 39.0082 21.8205H35.0082ZM39.4302 40.5422V22.6316H35.4302V40.5422H39.4302ZM37.8701 42.4934L37.8932 42.4879L36.9672 38.5966L36.9441 38.602L37.8701 42.4934ZM34.5122 43.7797C35.4349 43.2479 36.5728 42.803 37.8714 42.4931L36.9428 38.6024C35.3292 38.9875 33.8211 39.5613 32.5151 40.3139L34.5122 43.7797ZM32.5367 45.4574C32.9383 44.8986 33.5856 44.3136 34.5122 43.7797L32.5151 40.3139C31.213 41.0643 30.0927 42.004 29.2884 43.1231L32.5367 45.4574ZM32 46.9356C31.9998 46.5029 32.1434 46.0048 32.5367 45.4574L29.2884 43.1231C28.476 44.2537 27.9994 45.5539 28 46.9373L32 46.9356ZM32.0018 47.0227C32.0006 46.9943 32 46.9658 32 46.9373L28 46.9356C28 47.0215 28.0018 47.1074 28.0054 47.1931L32.0018 47.0227ZM30 49.1079H30.0036V45.1079H30V49.1079ZM32 95.9754V47.1079H28V95.9754H32ZM32 97.1588V95.9754H28V97.1588H32ZM32 100.513V97.1588H28V100.513H32ZM34.8 100.644C33.6871 100.644 32.7756 100.44 32.2173 100.192C32.0845 100.133 31.9863 100.078 31.918 100.033C31.8485 99.9873 31.8232 99.9609 31.8251 99.9629C31.8284 99.9663 32 100.156 32 100.513H28C28 101.459 28.4402 102.209 28.9293 102.722C29.4087 103.225 30.0076 103.587 30.5945 103.848C31.7734 104.371 33.262 104.644 34.8 104.644V100.644ZM49.2 100.644H34.8V104.644H49.2V100.644ZM52 100.513C52 100.156 52.1716 99.9663 52.1749 99.9629C52.1768 99.9609 52.1515 99.9873 52.082 100.033C52.0137 100.078 51.9155 100.133 51.7827 100.192C51.2244 100.44 50.3129 100.644 49.2 100.644V104.644C50.738 104.644 52.2266 104.371 53.4055 103.848C53.9924 103.587 54.5913 103.225 55.0707 102.722C55.5598 102.209 56 101.459 56 100.513H52ZM52 97.1588V100.513H56V97.1588H52ZM52 95.9754V97.1588H56V95.9754H52ZM52 47.1079V95.9754H56V47.1079H52ZM53.9964 49.1079H54V45.1079H53.9964V49.1079ZM52 46.9373C52 46.9658 51.9994 46.9943 51.9982 47.0227L55.9946 47.1931C55.9982 47.1074 56 47.0215 56 46.9356L52 46.9373ZM51.4633 45.4574C51.8566 46.0048 52.0002 46.5029 52 46.9356L56 46.9373C56.0006 45.5539 55.524 44.2537 54.7116 43.1231L51.4633 45.4574ZM49.4878 43.7797C50.4144 44.3136 51.0617 44.8986 51.4633 45.4574L54.7116 43.1231C53.9073 42.004 52.787 41.0643 51.4849 40.3139L49.4878 43.7797ZM46.1286 42.4931C47.4272 42.803 48.5651 43.2479 49.4878 43.7797L51.4849 40.3139C50.1789 39.5613 48.6708 38.9875 47.0572 38.6024L46.1286 42.4931ZM46.1066 42.4878L46.1298 42.4934L47.0559 38.602L47.0327 38.5965L46.1066 42.4878ZM44.5696 22.6315V40.5422H48.5696V22.6315H44.5696ZM47.7766 24.2262C48.4683 23.7027 48.9915 22.8501 48.9915 21.8205H44.9915C44.9915 21.4405 45.1873 21.1695 45.3626 21.0368L47.7766 24.2262ZM48.9915 21.8205V18.9905H44.9915V21.8205H48.9915ZM48.9915 18.9905C48.9915 17.961 48.4683 17.1084 47.7766 16.5849L45.3626 19.7743C45.1873 19.6416 44.9915 19.3706 44.9915 18.9905H48.9915ZM44.5696 17.2056V18.1796H48.5696V17.2056H44.5696ZM44.1696 18.1404C44.6198 18.1404 44.9313 18.2253 45.0553 18.2804C45.1199 18.309 45.0481 18.2914 44.9331 18.1707C44.8084 18.0397 44.5696 17.7102 44.5696 17.2056H48.5696C48.5696 16.4069 48.1966 15.7971 47.8289 15.4112C47.471 15.0357 47.0478 14.7885 46.6781 14.6243C45.9334 14.2938 45.0449 14.1404 44.1696 14.1404V18.1404Z" fill="#B9B9B9" mask="url(#path-2-inside-1_261_262)"/>
<path d="M80.5 2L2.5 113" stroke="#B9B9B9" stroke-width="2"/>
<path d="M33.925 55.4L32.585 52.6H32.525V62H29.665V48.04H32.985L36.805 54.64L38.145 57.44H38.205V48.04H41.065V62H37.745L33.925 55.4ZM49.7377 62.24C48.8177 62.24 47.9777 62.0867 47.2177 61.78C46.4577 61.4733 45.811 61.02 45.2777 60.42C44.7443 59.8067 44.331 59.0533 44.0377 58.16C43.7443 57.2533 43.5977 56.2067 43.5977 55.02C43.5977 53.8333 43.7443 52.7933 44.0377 51.9C44.331 50.9933 44.7443 50.24 45.2777 49.64C45.811 49.0267 46.4577 48.5667 47.2177 48.26C47.9777 47.9533 48.8177 47.8 49.7377 47.8C50.6577 47.8 51.4977 47.9533 52.2577 48.26C53.0177 48.5667 53.6643 49.0267 54.1977 49.64C54.731 50.24 55.1443 50.9933 55.4377 51.9C55.731 52.7933 55.8777 53.8333 55.8777 55.02C55.8777 56.2067 55.731 57.2533 55.4377 58.16C55.1443 59.0533 54.731 59.8067 54.1977 60.42C53.6643 61.02 53.0177 61.4733 52.2577 61.78C51.4977 62.0867 50.6577 62.24 49.7377 62.24ZM49.7377 59.54C50.6577 59.54 51.371 59.24 51.8777 58.64C52.3977 58.04 52.6577 57.18 52.6577 56.06V53.98C52.6577 52.86 52.3977 52 51.8777 51.4C51.371 50.8 50.6577 50.5 49.7377 50.5C48.8177 50.5 48.0977 50.8 47.5777 51.4C47.071 52 46.8177 52.86 46.8177 53.98V56.06C46.8177 57.18 47.071 58.04 47.5777 58.64C48.0977 59.24 48.8177 59.54 49.7377 59.54ZM11.1855 88V85.58H12.9855V76.46H11.1855V74.04H17.8255V76.46H16.0255V85.58H17.8255V88H11.1855ZM30.7984 78.84H30.7384L29.7184 80.88L26.9984 85.82L24.3384 80.9L23.2784 78.7H23.2184V88H20.3584V74.04H23.5784L26.9984 80.58H27.0384L30.4184 74.04H33.6584V88H30.7984V78.84ZM45.3451 88L44.3451 84.68H39.6851L38.6851 88H35.6051L40.2051 74.04H43.9651L48.5051 88H45.3451ZM42.0451 76.8H41.9451L40.4051 82.1H43.6051L42.0451 76.8ZM58.691 85.78H58.591C58.4843 86.4867 58.1243 87.0733 57.511 87.54C56.8977 88.0067 56.0643 88.24 55.011 88.24C54.211 88.24 53.4643 88.0867 52.771 87.78C52.0777 87.4733 51.471 87.02 50.951 86.42C50.431 85.82 50.0243 85.0733 49.731 84.18C49.4377 83.2867 49.291 82.2533 49.291 81.08C49.291 79.9067 49.4443 78.8667 49.751 77.96C50.0577 77.0533 50.4843 76.2933 51.031 75.68C51.591 75.0667 52.2577 74.6 53.031 74.28C53.8043 73.96 54.6643 73.8 55.611 73.8C56.8643 73.8 57.9443 74.0733 58.851 74.62C59.7577 75.1533 60.471 75.96 60.991 77.04L58.511 78.46C58.2977 77.9133 57.9643 77.4533 57.511 77.08C57.0577 76.6933 56.4243 76.5 55.611 76.5C54.6643 76.5 53.911 76.7733 53.351 77.32C52.791 77.8667 52.511 78.7267 52.511 79.9V82.14C52.511 83.3 52.791 84.16 53.351 84.72C53.911 85.2667 54.6643 85.54 55.611 85.54C55.9843 85.54 56.3377 85.5 56.671 85.42C57.0043 85.3267 57.2977 85.1933 57.551 85.02C57.8043 84.8333 57.9977 84.6133 58.131 84.36C58.2777 84.1067 58.351 83.8067 58.351 83.46V82.76H55.751V80.22H61.251V88H58.691V85.78ZM64.206 88V74.04H73.706V76.74H67.246V79.6H72.786V82.28H67.246V85.3H73.706V88H64.206Z" fill="black"/>
</svg>
