<svg width="100" height="85" viewBox="0 0 100 85" fill="none" xmlns="http://www.w3.org/2000/svg">
<path d="M49.9278 24.7067L66.8981 41.677L31.815 76.7601L14.8447 59.7897L49.9278 24.7067Z" fill="black"/>
<path d="M20.5617 60.8609L30.7439 71.0431C32.6184 72.9176 33.4693 75.1058 32.6446 75.9306L29.4638 79.1114C28.639 79.9361 26.4508 79.0852 24.5763 77.2107L14.3941 67.0285C12.5196 65.154 11.6687 62.9658 12.4934 62.1411L15.6742 58.9603C16.499 58.1355 18.6872 58.9865 20.5617 60.8609Z" fill="black"/>
<path d="M50.048 24.5865C49.4112 25.2227 49.0002 26.0722 48.8385 27.0866C48.6767 28.101 48.7673 29.2603 49.1051 30.4984C49.443 31.7364 50.0214 33.029 50.8074 34.3022C51.5934 35.5754 52.5715 36.8043 53.686 37.9188C54.8005 39.0333 56.0294 40.0114 57.3026 40.7974C58.5758 41.5834 59.8684 42.1619 61.1064 42.4997C62.3445 42.8375 63.5038 42.9281 64.5182 42.7664C65.5326 42.6046 66.3821 42.1936 67.0183 41.5568C67.6551 40.9206 68.0661 40.0711 68.2279 39.0567C68.3897 38.0423 68.299 36.883 67.9612 35.6449C67.6234 34.4069 67.0449 33.1143 66.2589 31.8411C65.4729 30.5679 64.4948 29.339 63.3803 28.2245C62.2659 27.11 61.0369 26.1319 59.7637 25.3459C58.4905 24.5599 57.198 23.9814 55.9599 23.6436C54.7218 23.3058 53.5625 23.2152 52.5481 23.3769C51.5338 23.5387 50.6842 23.9497 50.048 24.5865V24.5865Z" fill="black"/>
<path d="M78.5854 9.95099L81.6538 13.0194C82.591 13.9566 83.0165 15.0507 82.6041 15.4631L65.0341 33.0331C64.6217 33.4455 63.5276 33.02 62.5904 32.0828L59.522 29.0144C58.5847 28.0771 58.1593 26.9831 58.5717 26.5707L76.1417 9.00065C76.5541 8.58826 77.6481 9.01375 78.5854 9.95099Z" fill="black"/>
<path d="M76.1874 10.0554L81.5496 15.4175C82.0182 15.8861 82.0638 16.6003 81.6514 17.0127L79.6677 18.9964C79.2553 19.4088 78.5411 19.3632 78.0725 18.8945L72.7104 13.5324C72.2417 13.0638 72.1962 12.3496 72.6085 11.9372L74.5922 9.95353C75.0046 9.54114 75.7188 9.58673 76.1874 10.0554Z" fill="black"/>
</svg>
