<svg width="24" height="24" viewBox="0 0 24 24" fill="none" xmlns="http://www.w3.org/2000/svg">
<rect width="24" height="24" fill="white"/>
<circle cx="12" cy="12" r="11.5" fill="#AE0757" stroke="#7A0E22"/>
<path d="M10.748 16H8.924V7.624H12.896C13.28 7.624 13.628 7.688 13.94 7.816C14.252 7.944 14.516 8.128 14.732 8.368C14.956 8.6 15.128 8.88 15.248 9.208C15.368 9.536 15.428 9.9 15.428 10.3C15.428 10.868 15.3 11.364 15.044 11.788C14.796 12.212 14.416 12.52 13.904 12.712L15.548 16H13.52L12.056 12.928H10.748V16ZM12.668 11.392C12.94 11.392 13.152 11.324 13.304 11.188C13.464 11.044 13.544 10.836 13.544 10.564V10.036C13.544 9.764 13.464 9.56 13.304 9.424C13.152 9.28 12.94 9.208 12.668 9.208H10.748V11.392H12.668Z" fill="white"/>
</svg>
